<?xml version="1.0" standalone="no"?>
<!DOCTYPE svg PUBLIC "-//W3C//DTD SVG 20010904//EN"
 "http://www.w3.org/TR/2001/REC-SVG-20010904/DTD/svg10.dtd">
<svg version="1.0" xmlns="http://www.w3.org/2000/svg"
 width="300.000000pt" height="300.000000pt" viewBox="0 0 300.000000 300.000000"
 preserveAspectRatio="xMidYMid meet">
<g transform="translate(0.000000,300.000000) scale(0.050000,-0.050000)"
fill="#075037" stroke="none">
<path d="M3037 5558 c-747 -61 -1481 -518 -1397 -869 32 -133 35 -133 110 -7
355 601 1351 827 2547 579 329 -68 393 -143 393 -461 0 -390 -60 -419 -690
-330 -937 133 -1487 -80 -1309 -506 74 -177 223 -274 789 -513 1134 -479 1481
-835 1480 -1519 -2 -1122 -1159 -1620 -2907 -1252 -343 73 -434 170 -432 459
3 365 88 417 554 337 387 -67 1130 -67 1343 0 294 93 406 207 419 426 16 292
-99 387 -873 721 -802 345 -1018 501 -1177 849 -172 374 -10 984 328 1237 54
41 76 71 70 95 -5 20 -1 36 10 36 44 0 9 -99 -87 -242 -192 -289 -321 -893
-212 -1001 60 -61 424 402 512 653 76 216 57 890 -25 890 -290 -2 -713 -496
-835 -976 -196 -773 133 -1205 1306 -1717 695 -303 786 -364 786 -530 0 -256
-706 -377 -1460 -250 -677 115 -877 -17 -856 -564 16 -416 141 -532 691 -642
1826 -363 3034 217 3035 1459 0 830 -347 1196 -1659 1748 -525 221 -679 342
-614 483 63 138 550 193 1073 119 746 -105 926 -13 946 482 20 495 -127 640
-758 747 -428 72 -744 89 -1101 59z m-670 -1153 c-6 -25 -24 -45 -40 -45 -22
0 -24 -9 -8 -39 17 -31 14 -43 -14 -59 -32 -19 -32 -21 5 -23 29 -2 32 -5 10
-13 -42 -16 -100 -79 -85 -94 6 -7 -2 -12 -19 -12 -38 0 -37 75 2 99 16 10 23
34 17 59 -6 23 -4 37 5 32 10 -6 20 10 24 35 4 25 17 43 30 41 12 -3 34 10 49
28 24 29 22 32 -18 21 -25 -6 -45 -4 -45 5 0 21 65 37 84 21 8 -6 9 -32 3 -56z"/>
<path d="M490 5268 c-334 -76 -410 -96 -410 -111 0 -33 165 -346 241 -458 203
-299 556 -505 945 -551 l114 -13 -23 67 c-88 255 -464 588 -792 701 -129 45
-132 47 -65 54 355 34 813 -284 971 -672 62 -152 99 -102 99 135 0 542 -545
970 -1080 848z m330 -696 c0 -52 30 -84 90 -95 36 -7 36 -10 6 -22 -20 -8 -47
-1 -64 16 -17 16 -37 28 -46 25 -46 -12 -116 30 -76 46 33 12 29 15 -23 17
-115 2 -102 61 14 61 91 0 99 -4 99 -48z"/>
</g>
</svg>
